<svg xmlns="http://www.w3.org/2000/svg" width="192" height="192" viewBox="0 0 192 192">
  <defs>
    <linearGradient id="stone" x1="0" x2="0" y1="0" y2="1">
      <stop offset="0" stop-color="#edf7ff"/>
      <stop offset="0.54" stop-color="#9db3c8"/>
      <stop offset="1" stop-color="#50677d"/>
    </linearGradient>
    <linearGradient id="blue" x1="0" x2="0" y1="0" y2="1">
      <stop offset="0" stop-color="#78dcff"/>
      <stop offset="1" stop-color="#1567d9"/>
    </linearGradient>
    <filter id="shadow" x="-30%" y="-30%" width="160%" height="170%">
      <feDropShadow dx="0" dy="10" stdDeviation="8" flood-color="#061425" flood-opacity=".45"/>
    </filter>
  </defs>
  <g filter="url(#shadow)">
    <ellipse cx="96" cy="157" rx="52" ry="16" fill="#07111f" opacity=".32"/>
    <path d="M58 145h76l-8 22H66z" fill="#34485f"/>
    <path d="M67 68h58l8 77H59z" fill="url(#stone)"/>
    <path d="M73 38h46v34H73z" fill="url(#stone)"/>
    <path d="M65 34h14v22H65zm25 0h14v22H90zm25 0h14v22h-14z" fill="#d9e9f7"/>
    <path d="M78 86h36v22H78z" fill="#22344c"/>
    <path d="M83 91h26v17H83z" fill="url(#blue)"/>
    <path d="M90 112h13c7 0 13 6 13 13v20H77v-20c0-7 6-13 13-13z" fill="#22344c"/>
    <path d="M96 26v42" stroke="#ffe177" stroke-width="5" stroke-linecap="round"/>
    <path d="M99 28c18 3 27 8 37 18-12 3-22 8-37 3z" fill="url(#blue)"/>
    <path d="M58 145h76" stroke="#f8fdff" stroke-width="4" opacity=".65"/>
    <path d="M68 72h56" stroke="#ffffff" stroke-width="5" opacity=".42"/>
  </g>
</svg>
